<?xml version="1.0" standalone="no"?><!DOCTYPE svg PUBLIC "-//W3C//DTD SVG 1.1//EN" "http://www.w3.org/Graphics/SVG/1.1/DTD/svg11.dtd"><svg t="1711533328760" class="icon" viewBox="0 0 1024 1024" version="1.1" xmlns="http://www.w3.org/2000/svg" p-id="11591" xmlns:xlink="http://www.w3.org/1999/xlink" width="128" height="128"><path d="M240.64 309.547a35.2 35.2 0 1 0 34.987 34.986 34.987 34.987 0 0 0-34.987-34.986z m258.773 70.186a35.2 35.2 0 1 0-35.2-35.2 34.987 34.987 0 0 0 35.2 35.2z" p-id="11592"></path><path d="M1004.8 621.653c0-135.04-128-245.546-289.92-252.8-32.213-134.186-175.147-234.666-344.533-234.666C176.64 134.187 19.2 264.107 19.2 423.68a272 272 0 0 0 128 223.573l-24.747 39.04a28.16 28.16 0 0 0 23.254 42.667 28.587 28.587 0 0 0 8.533-1.28L256 696.96a415.787 415.787 0 0 0 155.733 13.867c44.16 97.493 159.147 164.266 287.147 164.266a370.347 370.347 0 0 0 99.627-13.44l85.333 26.88a27.947 27.947 0 0 0 8.107 1.28 27.093 27.093 0 0 0 21.333-10.88 27.52 27.52 0 0 0 1.28-31.573L896 816a237.44 237.44 0 0 0 108.8-194.347z m-736.853 30.294a49.92 49.92 0 0 0-26.24 0l-52.694 16.426a46.72 46.72 0 0 0-14.933-59.946A225.707 225.707 0 0 1 66.133 423.68c0-133.76 136.32-242.773 304.214-242.773 143.36 0 265.386 79.573 296.533 188.586C512 382.507 391.04 490.667 391.04 621.653a209.92 209.92 0 0 0 4.693 42.667 368.64 368.64 0 0 1-127.786-12.373z m597.333 128a42.667 42.667 0 0 0-16.427 49.493l-38.186-13.013a42.667 42.667 0 0 0-12.8-1.92 44.8 44.8 0 0 0-11.947 1.706 311.68 311.68 0 0 1-87.467 12.16c-116.053 0-218.88-62.08-250.24-150.613a166.187 166.187 0 0 1-9.813-56.107c0-113.066 115.627-205.866 257.707-206.72h2.346c143.36 0 259.84 92.8 259.84 206.72a192 192 0 0 1-92.373 157.44z" p-id="11593"></path><path d="M810.667 523.093a30.293 30.293 0 1 0 30.506 30.294 30.293 30.293 0 0 0-30.506-30.294z m-224.214 0a30.293 30.293 0 1 0 30.294 30.294 30.08 30.08 0 0 0-30.294-30.294z" p-id="11594"></path></svg>