<?xml version="1.0" standalone="no"?><!DOCTYPE svg PUBLIC "-//W3C//DTD SVG 1.1//EN" "http://www.w3.org/Graphics/SVG/1.1/DTD/svg11.dtd"><svg t="1711531429899" class="icon" viewBox="0 0 1032 1024" version="1.1" xmlns="http://www.w3.org/2000/svg" p-id="4271" xmlns:xlink="http://www.w3.org/1999/xlink" width="129" height="128"><path d="M1032.005818 536.110545h-194.304v-46.545454h81.198546L564.386909 138.24a35.444364 35.444364 0 0 0-49.733818 0L160.116364 489.565091h81.105454v46.545454H47.034182L481.885091 105.169455a82.106182 82.106182 0 0 1 115.269818 0l434.850909 430.94109z" p-id="4272"></path><path d="M433.617455 933.399273h-138.333091a103.726545 103.726545 0 0 1-103.610182-103.610182V512.837818h46.545454v316.951273c0 31.488 25.6 57.064727 57.064728 57.064727h91.787636v-252.974545h46.545455v299.52zM783.755636 933.399273h-138.309818v-299.52h46.545455v252.974545h91.764363c31.488 0 57.064727-25.6 57.064728-57.064727V512.837818h46.545454v316.951273a103.726545 103.726545 0 0 1-103.610182 103.610182z" p-id="4273"></path><path d="M389.445818 631.552h299.752727v46.545455h-299.752727z" p-id="4274"></path></svg>