<?xml version="1.0" standalone="no"?><!DOCTYPE svg PUBLIC "-//W3C//DTD SVG 1.1//EN" "http://www.w3.org/Graphics/SVG/1.1/DTD/svg11.dtd">
<svg t="1711533220565"
     class="icon"
     viewBox="0 0 1024 1024"
     version="1.1"
     xmlns="http://www.w3.org/2000/svg"
     p-id="9703"
     xmlns:xlink="http://www.w3.org/1999/xlink"
     width="128"
     height="128"
     fill="currentColor"
    >
    <path
        d="M422.4 198.4v-44.8H960v44.8H422.4zM198.4 960a134.4 134.4 0 1 1 0-268.8 134.4 134.4 0 0 1 0 268.8z m0-224a89.6 89.6 0 1 0 0 179.2 89.6 89.6 0 0 0 0-179.2z m0-89.6a134.4 134.4 0 1 1 0-268.8 134.4 134.4 0 0 1 0 268.8z m0-224a89.6 89.6 0 1 0 0 179.2 89.6 89.6 0 0 0 0-179.2z m0-89.6a134.4 134.4 0 1 1 0-268.8 134.4 134.4 0 0 1 0 268.8z m0-224a89.6 89.6 0 1 0 0 179.2 89.6 89.6 0 0 0 0-179.2zM780.8 512H422.4v-44.8h358.4V512z m-179.2 313.6H422.4v-44.8h179.2v44.8z"
        p-id="9704"></path>
</svg>